<mxfile host="Electron" modified="2024-09-25T16:13:57.614Z" agent="Mozilla/5.0 (Macintosh; Intel Mac OS X 10_15_7) AppleWebKit/537.36 (KHTML, like Gecko) draw.io/24.4.0 Chrome/120.0.6099.109 Electron/28.1.0 Safari/537.36" etag="8qnqiUecgrp44otq1QEg" version="24.4.0" type="device">
  <diagram name="Page-1" id="Lj5Rh6XzALvkM9xNsUpo">
    <mxGraphModel dx="1100" dy="837" grid="0" gridSize="10" guides="1" tooltips="1" connect="1" arrows="1" fold="1" page="0" pageScale="1" pageWidth="1169" pageHeight="827" math="0" shadow="0">
      <root>
        <mxCell id="0" />
        <mxCell id="1" parent="0" />
        <mxCell id="JigyoQ_GSb3Tfn5q-Iza-1" value="" style="ellipse;html=1;shape=startState;fillColor=#000066;strokeColor=#FF8000;fontFamily=Tahoma;fontSize=14;fontColor=#FF8000;" vertex="1" parent="1">
          <mxGeometry x="137" y="51" width="30" height="30" as="geometry" />
        </mxCell>
        <mxCell id="JigyoQ_GSb3Tfn5q-Iza-2" value="" style="edgeStyle=orthogonalEdgeStyle;html=1;verticalAlign=bottom;endArrow=open;endSize=8;strokeColor=#FF8000;fontFamily=Tahoma;fontSize=14;fontColor=#FF8000;entryX=0.5;entryY=0;" edge="1" parent="1" source="JigyoQ_GSb3Tfn5q-Iza-1" target="JigyoQ_GSb3Tfn5q-Iza-3">
          <mxGeometry relative="1" as="geometry">
            <mxPoint x="152" y="151" as="targetPoint" />
            <Array as="points" />
          </mxGeometry>
        </mxCell>
        <mxCell id="JigyoQ_GSb3Tfn5q-Iza-3" value="&lt;font style=&quot;font-size: 12px&quot;&gt;Log into the app&lt;/font&gt;" style="rounded=1;whiteSpace=wrap;html=1;arcSize=40;fillColor=#dae8fc;strokeColor=#6c8ebf;fontFamily=Tahoma;fontSize=14;fontColor=#000066;" vertex="1" parent="1">
          <mxGeometry x="92" y="130" width="120" height="40" as="geometry" />
        </mxCell>
        <mxCell id="JigyoQ_GSb3Tfn5q-Iza-4" value="" style="edgeStyle=orthogonalEdgeStyle;html=1;verticalAlign=bottom;endArrow=open;endSize=8;strokeColor=#FF8000;fontFamily=Tahoma;fontSize=14;fontColor=#FF8000;entryX=0.5;entryY=0;" edge="1" parent="1" source="JigyoQ_GSb3Tfn5q-Iza-3" target="JigyoQ_GSb3Tfn5q-Iza-5">
          <mxGeometry relative="1" as="geometry">
            <mxPoint x="152" y="230" as="targetPoint" />
            <Array as="points">
              <mxPoint x="152" y="210" />
              <mxPoint x="152" y="210" />
            </Array>
          </mxGeometry>
        </mxCell>
        <mxCell id="JigyoQ_GSb3Tfn5q-Iza-5" value="&lt;font style=&quot;font-size: 12px&quot;&gt;Correct&lt;/font&gt;?" style="rhombus;whiteSpace=wrap;html=1;fillColor=#dae8fc;strokeColor=#6c8ebf;fontFamily=Tahoma;fontSize=14;fontColor=#000066;" vertex="1" parent="1">
          <mxGeometry x="112" y="230" width="80" height="40" as="geometry" />
        </mxCell>
        <mxCell id="JigyoQ_GSb3Tfn5q-Iza-6" value="no" style="edgeStyle=orthogonalEdgeStyle;html=1;align=left;verticalAlign=bottom;endArrow=open;endSize=8;strokeColor=#FF8000;fontFamily=Tahoma;fontSize=14;fontColor=#FF8000;entryX=0;entryY=0.5;" edge="1" parent="1" source="JigyoQ_GSb3Tfn5q-Iza-5" target="JigyoQ_GSb3Tfn5q-Iza-8">
          <mxGeometry x="-1" relative="1" as="geometry">
            <mxPoint x="282" y="250" as="targetPoint" />
            <Array as="points" />
          </mxGeometry>
        </mxCell>
        <mxCell id="JigyoQ_GSb3Tfn5q-Iza-7" value="yes" style="edgeStyle=orthogonalEdgeStyle;html=1;align=left;verticalAlign=top;endArrow=open;endSize=8;strokeColor=#FF8000;fontFamily=Tahoma;fontSize=14;fontColor=#FF8000;entryX=0.5;entryY=0;" edge="1" parent="1" source="JigyoQ_GSb3Tfn5q-Iza-5" target="JigyoQ_GSb3Tfn5q-Iza-10">
          <mxGeometry x="-1" relative="1" as="geometry">
            <mxPoint x="152" y="330" as="targetPoint" />
            <Array as="points" />
            <mxPoint as="offset" />
          </mxGeometry>
        </mxCell>
        <mxCell id="JigyoQ_GSb3Tfn5q-Iza-8" value="&lt;font style=&quot;font-size: 12px&quot;&gt;Display error&lt;/font&gt;" style="rounded=1;whiteSpace=wrap;html=1;arcSize=40;fillColor=#dae8fc;strokeColor=#6c8ebf;fontFamily=Tahoma;fontSize=14;fontColor=#000066;" vertex="1" parent="1">
          <mxGeometry x="227" y="230" width="120" height="40" as="geometry" />
        </mxCell>
        <mxCell id="JigyoQ_GSb3Tfn5q-Iza-9" value="" style="edgeStyle=orthogonalEdgeStyle;html=1;verticalAlign=bottom;endArrow=open;endSize=8;strokeColor=#FF8000;fontFamily=Tahoma;fontSize=14;fontColor=#FF8000;entryX=1;entryY=0.5;exitX=0.5;exitY=0;" edge="1" parent="1" source="JigyoQ_GSb3Tfn5q-Iza-8" target="JigyoQ_GSb3Tfn5q-Iza-3">
          <mxGeometry relative="1" as="geometry">
            <mxPoint x="342" y="330" as="targetPoint" />
            <Array as="points">
              <mxPoint x="287" y="150" />
            </Array>
          </mxGeometry>
        </mxCell>
        <mxCell id="JigyoQ_GSb3Tfn5q-Iza-10" value="&lt;font style=&quot;font-size: 11px&quot;&gt;Existing &lt;br&gt;habits?&lt;/font&gt;" style="rhombus;whiteSpace=wrap;html=1;fillColor=#dae8fc;strokeColor=#6c8ebf;fontFamily=Tahoma;fontSize=14;fontColor=#000066;" vertex="1" parent="1">
          <mxGeometry x="112" y="314" width="80" height="40" as="geometry" />
        </mxCell>
        <mxCell id="JigyoQ_GSb3Tfn5q-Iza-11" value="no" style="edgeStyle=orthogonalEdgeStyle;html=1;align=left;verticalAlign=bottom;endArrow=open;endSize=8;strokeColor=#FF8000;fontFamily=Tahoma;fontSize=14;fontColor=#FF8000;" edge="1" parent="1" source="JigyoQ_GSb3Tfn5q-Iza-10" target="JigyoQ_GSb3Tfn5q-Iza-16">
          <mxGeometry x="-1" relative="1" as="geometry">
            <mxPoint x="272" y="364" as="targetPoint" />
          </mxGeometry>
        </mxCell>
        <mxCell id="JigyoQ_GSb3Tfn5q-Iza-12" value="yes" style="edgeStyle=orthogonalEdgeStyle;html=1;align=left;verticalAlign=top;endArrow=open;endSize=8;strokeColor=#FF8000;fontFamily=Tahoma;fontSize=14;fontColor=#FF8000;entryX=0.5;entryY=0;" edge="1" parent="1" source="JigyoQ_GSb3Tfn5q-Iza-10" target="JigyoQ_GSb3Tfn5q-Iza-18">
          <mxGeometry x="-1" relative="1" as="geometry">
            <mxPoint x="152" y="444" as="targetPoint" />
            <Array as="points" />
          </mxGeometry>
        </mxCell>
        <mxCell id="JigyoQ_GSb3Tfn5q-Iza-13" value="&lt;font style=&quot;font-size: 16px&quot; color=&quot;#ff8000&quot;&gt;&lt;b&gt;User&lt;/b&gt;&lt;/font&gt;" style="text;html=1;resizable=0;points=[];autosize=1;align=left;verticalAlign=top;spacingTop=-4;fontSize=14;fontFamily=Tahoma;fontColor=#000066;" vertex="1" parent="1">
          <mxGeometry x="133" y="32" width="50" height="20" as="geometry" />
        </mxCell>
        <mxCell id="JigyoQ_GSb3Tfn5q-Iza-14" style="edgeStyle=none;rounded=1;html=1;exitX=0.5;exitY=1;entryX=0.75;entryY=0;startArrow=none;startFill=0;endArrow=open;endFill=0;jettySize=auto;orthogonalLoop=1;strokeColor=#FF8000;fontFamily=Tahoma;fontSize=14;fontColor=#000066;jumpStyle=arc;jumpSize=13;" edge="1" parent="1" source="JigyoQ_GSb3Tfn5q-Iza-32" target="JigyoQ_GSb3Tfn5q-Iza-18">
          <mxGeometry relative="1" as="geometry">
            <Array as="points">
              <mxPoint x="462" y="374" />
              <mxPoint x="182" y="374" />
            </Array>
          </mxGeometry>
        </mxCell>
        <mxCell id="JigyoQ_GSb3Tfn5q-Iza-15" style="edgeStyle=none;rounded=1;html=1;exitX=1;exitY=0.5;startArrow=none;startFill=0;endArrow=open;endFill=0;jettySize=auto;orthogonalLoop=1;strokeColor=#FF8000;fontFamily=Tahoma;fontSize=14;fontColor=#000066;entryX=0;entryY=0.5;" edge="1" parent="1" source="JigyoQ_GSb3Tfn5q-Iza-16" target="JigyoQ_GSb3Tfn5q-Iza-32">
          <mxGeometry relative="1" as="geometry">
            <mxPoint x="392" y="334" as="targetPoint" />
          </mxGeometry>
        </mxCell>
        <mxCell id="JigyoQ_GSb3Tfn5q-Iza-16" value="Enter a new habit" style="rounded=1;whiteSpace=wrap;html=1;arcSize=40;fillColor=#dae8fc;strokeColor=#6c8ebf;fontColor=#000066;" vertex="1" parent="1">
          <mxGeometry x="228" y="314" width="120" height="40" as="geometry" />
        </mxCell>
        <mxCell id="JigyoQ_GSb3Tfn5q-Iza-17" style="edgeStyle=none;rounded=0;html=1;exitX=0.5;exitY=1;startArrow=none;startFill=0;endArrow=open;endFill=0;jettySize=auto;orthogonalLoop=1;fontFamily=Tahoma;fontSize=14;fontColor=#000066;strokeColor=#FF8000;" edge="1" parent="1" source="JigyoQ_GSb3Tfn5q-Iza-18" target="JigyoQ_GSb3Tfn5q-Iza-23">
          <mxGeometry relative="1" as="geometry">
            <mxPoint x="152" y="464" as="targetPoint" />
          </mxGeometry>
        </mxCell>
        <mxCell id="JigyoQ_GSb3Tfn5q-Iza-18" value="Display habits" style="rounded=1;whiteSpace=wrap;html=1;arcSize=40;fillColor=#dae8fc;strokeColor=#6c8ebf;fontColor=#000066;" vertex="1" parent="1">
          <mxGeometry x="92" y="394" width="120" height="40" as="geometry" />
        </mxCell>
        <mxCell id="JigyoQ_GSb3Tfn5q-Iza-19" style="edgeStyle=none;rounded=1;html=1;exitX=1;exitY=0.5;entryX=0.75;entryY=1;startArrow=none;startFill=0;endArrow=open;endFill=0;jettySize=auto;orthogonalLoop=1;strokeColor=#FF8000;fontFamily=Tahoma;fontSize=14;fontColor=#000066;jumpStyle=arc;jumpSize=13;" edge="1" parent="1" source="JigyoQ_GSb3Tfn5q-Iza-23" target="JigyoQ_GSb3Tfn5q-Iza-16">
          <mxGeometry relative="1" as="geometry">
            <Array as="points">
              <mxPoint x="318" y="476" />
            </Array>
          </mxGeometry>
        </mxCell>
        <mxCell id="JigyoQ_GSb3Tfn5q-Iza-20" value="&lt;font color=&quot;#ff8000&quot;&gt;yes&lt;/font&gt;" style="text;html=1;resizable=0;points=[];align=center;verticalAlign=middle;labelBackgroundColor=#ffffff;fontSize=14;fontFamily=Tahoma;fontColor=#000066;" vertex="1" connectable="0" parent="JigyoQ_GSb3Tfn5q-Iza-19">
          <mxGeometry x="-0.8387" y="-1" relative="1" as="geometry">
            <mxPoint x="-7" y="-13" as="offset" />
          </mxGeometry>
        </mxCell>
        <mxCell id="JigyoQ_GSb3Tfn5q-Iza-21" style="edgeStyle=none;rounded=1;html=1;exitX=0.5;exitY=1;startArrow=none;startFill=0;endArrow=open;endFill=0;jettySize=auto;orthogonalLoop=1;strokeColor=#FF8000;fontFamily=Tahoma;fontSize=14;fontColor=#000066;entryX=0.5;entryY=0;" edge="1" parent="1" source="JigyoQ_GSb3Tfn5q-Iza-23" target="JigyoQ_GSb3Tfn5q-Iza-36">
          <mxGeometry relative="1" as="geometry">
            <mxPoint x="152" y="524" as="targetPoint" />
          </mxGeometry>
        </mxCell>
        <mxCell id="JigyoQ_GSb3Tfn5q-Iza-22" value="&lt;font color=&quot;#ff8000&quot;&gt;no&lt;/font&gt;" style="text;html=1;resizable=0;points=[];align=center;verticalAlign=middle;labelBackgroundColor=#ffffff;fontSize=14;fontFamily=Tahoma;fontColor=#000066;" vertex="1" connectable="0" parent="JigyoQ_GSb3Tfn5q-Iza-21">
          <mxGeometry x="0.0769" y="-1" relative="1" as="geometry">
            <mxPoint x="12" y="-9" as="offset" />
          </mxGeometry>
        </mxCell>
        <mxCell id="JigyoQ_GSb3Tfn5q-Iza-23" value="&lt;font style=&quot;font-size: 11px&quot;&gt;Add new &lt;br&gt;habit?&lt;/font&gt;" style="rhombus;whiteSpace=wrap;html=1;fillColor=#dae8fc;strokeColor=#6c8ebf;fontColor=#000066;" vertex="1" parent="1">
          <mxGeometry x="112" y="456" width="80" height="40" as="geometry" />
        </mxCell>
        <mxCell id="JigyoQ_GSb3Tfn5q-Iza-24" value="&lt;font color=&quot;#ff8000&quot;&gt;no&lt;/font&gt;" style="edgeStyle=none;rounded=1;jumpStyle=arc;jumpSize=13;html=1;exitX=0.5;exitY=1;startArrow=none;startFill=0;endArrow=open;endFill=0;jettySize=auto;orthogonalLoop=1;strokeColor=#FF8000;fontFamily=Tahoma;fontSize=14;fontColor=#000066;" edge="1" parent="1" source="JigyoQ_GSb3Tfn5q-Iza-27" target="JigyoQ_GSb3Tfn5q-Iza-33">
          <mxGeometry x="-0.4419" y="10" relative="1" as="geometry">
            <mxPoint x="152" y="656" as="targetPoint" />
            <Array as="points" />
            <mxPoint as="offset" />
          </mxGeometry>
        </mxCell>
        <mxCell id="JigyoQ_GSb3Tfn5q-Iza-25" value="" style="edgeStyle=none;rounded=1;jumpStyle=arc;jumpSize=13;html=1;startArrow=none;startFill=0;endArrow=open;endFill=0;jettySize=auto;orthogonalLoop=1;strokeColor=#FF8000;fontFamily=Tahoma;fontSize=14;fontColor=#000066;" edge="1" parent="1" source="JigyoQ_GSb3Tfn5q-Iza-27" target="JigyoQ_GSb3Tfn5q-Iza-31">
          <mxGeometry relative="1" as="geometry" />
        </mxCell>
        <mxCell id="JigyoQ_GSb3Tfn5q-Iza-26" value="&lt;font color=&quot;#ff8000&quot;&gt;yes&lt;/font&gt;" style="text;html=1;resizable=0;points=[];align=center;verticalAlign=middle;labelBackgroundColor=#ffffff;fontSize=14;fontFamily=Tahoma;fontColor=#000066;" vertex="1" connectable="0" parent="JigyoQ_GSb3Tfn5q-Iza-25">
          <mxGeometry x="-0.65" relative="1" as="geometry">
            <mxPoint x="-2" y="-13" as="offset" />
          </mxGeometry>
        </mxCell>
        <mxCell id="JigyoQ_GSb3Tfn5q-Iza-27" value="&lt;font style=&quot;font-size: 11px&quot;&gt;Check in?&lt;/font&gt;" style="rhombus;whiteSpace=wrap;html=1;fillColor=#dae8fc;strokeColor=#6c8ebf;fontColor=#000066;" vertex="1" parent="1">
          <mxGeometry x="112" y="596" width="80" height="40" as="geometry" />
        </mxCell>
        <mxCell id="JigyoQ_GSb3Tfn5q-Iza-28" style="edgeStyle=none;rounded=1;jumpStyle=arc;jumpSize=13;html=1;exitX=1;exitY=0.5;entryX=0.25;entryY=0.5;entryPerimeter=0;startArrow=none;startFill=0;endArrow=open;endFill=0;jettySize=auto;orthogonalLoop=1;strokeColor=#FF8000;fontFamily=Tahoma;fontSize=14;fontColor=#000066;" edge="1" parent="1" source="JigyoQ_GSb3Tfn5q-Iza-31" target="JigyoQ_GSb3Tfn5q-Iza-34">
          <mxGeometry relative="1" as="geometry">
            <Array as="points">
              <mxPoint x="422" y="616" />
            </Array>
          </mxGeometry>
        </mxCell>
        <mxCell id="JigyoQ_GSb3Tfn5q-Iza-29" value="&lt;font color=&quot;#ff8000&quot;&gt;yes&lt;/font&gt;" style="text;html=1;resizable=0;points=[];align=center;verticalAlign=middle;labelBackgroundColor=#ffffff;fontSize=14;fontFamily=Tahoma;fontColor=#000066;" vertex="1" connectable="0" parent="JigyoQ_GSb3Tfn5q-Iza-28">
          <mxGeometry x="-0.8694" relative="1" as="geometry">
            <mxPoint x="-3" y="-12" as="offset" />
          </mxGeometry>
        </mxCell>
        <mxCell id="JigyoQ_GSb3Tfn5q-Iza-30" value="&lt;font color=&quot;#ff8000&quot;&gt;no&lt;/font&gt;" style="edgeStyle=none;rounded=1;jumpStyle=arc;jumpSize=13;html=1;exitX=0.5;exitY=1;entryX=0.75;entryY=0.5;entryPerimeter=0;startArrow=none;startFill=0;endArrow=open;endFill=0;jettySize=auto;orthogonalLoop=1;strokeColor=#FF8000;fontFamily=Tahoma;fontSize=14;fontColor=#000066;" edge="1" parent="1" source="JigyoQ_GSb3Tfn5q-Iza-31" target="JigyoQ_GSb3Tfn5q-Iza-34">
          <mxGeometry x="-0.9335" y="10" relative="1" as="geometry">
            <Array as="points">
              <mxPoint x="312" y="664" />
              <mxPoint x="482" y="664" />
            </Array>
            <mxPoint as="offset" />
          </mxGeometry>
        </mxCell>
        <mxCell id="JigyoQ_GSb3Tfn5q-Iza-31" value="&lt;font style=&quot;font-size: 11px&quot;&gt;Add &lt;br&gt;comment?&lt;/font&gt;" style="rhombus;whiteSpace=wrap;html=1;fillColor=#dae8fc;strokeColor=#6c8ebf;fontColor=#000066;" vertex="1" parent="1">
          <mxGeometry x="272" y="596" width="80" height="40" as="geometry" />
        </mxCell>
        <mxCell id="JigyoQ_GSb3Tfn5q-Iza-32" value="Update habits" style="rounded=1;whiteSpace=wrap;html=1;arcSize=40;fillColor=#dae8fc;strokeColor=#6c8ebf;fontColor=#000066;" vertex="1" parent="1">
          <mxGeometry x="402" y="314" width="120" height="40" as="geometry" />
        </mxCell>
        <mxCell id="JigyoQ_GSb3Tfn5q-Iza-33" value="" style="ellipse;html=1;shape=endState;fillColor=#000066;strokeColor=#FF8000;" vertex="1" parent="1">
          <mxGeometry x="137" y="667" width="30" height="30" as="geometry" />
        </mxCell>
        <mxCell id="JigyoQ_GSb3Tfn5q-Iza-34" value="" style="shape=line;html=1;strokeWidth=6;strokeColor=#FF8000;fontFamily=Tahoma;fontSize=14;fontColor=#000066;" vertex="1" parent="1">
          <mxGeometry x="392" y="436" width="120" height="10" as="geometry" />
        </mxCell>
        <mxCell id="JigyoQ_GSb3Tfn5q-Iza-35" value="" style="edgeStyle=orthogonalEdgeStyle;html=1;verticalAlign=bottom;endArrow=open;endSize=8;strokeColor=#FF8000;fontFamily=Tahoma;fontSize=14;fontColor=#000066;entryX=0.75;entryY=1;" edge="1" parent="1" source="JigyoQ_GSb3Tfn5q-Iza-34" target="JigyoQ_GSb3Tfn5q-Iza-32">
          <mxGeometry relative="1" as="geometry">
            <mxPoint x="492" y="516" as="targetPoint" />
            <Array as="points" />
          </mxGeometry>
        </mxCell>
        <mxCell id="JigyoQ_GSb3Tfn5q-Iza-36" value="&lt;font style=&quot;font-size: 12px&quot;&gt;View one habit&lt;/font&gt;" style="rounded=1;whiteSpace=wrap;html=1;arcSize=40;fillColor=#dae8fc;strokeColor=#6c8ebf;fontFamily=Tahoma;fontSize=14;fontColor=#000066;" vertex="1" parent="1">
          <mxGeometry x="92" y="527" width="120" height="40" as="geometry" />
        </mxCell>
        <mxCell id="JigyoQ_GSb3Tfn5q-Iza-37" value="" style="edgeStyle=orthogonalEdgeStyle;html=1;verticalAlign=bottom;endArrow=open;endSize=8;strokeColor=#FF8000;fontFamily=Tahoma;fontSize=14;fontColor=#000066;entryX=0.5;entryY=0;" edge="1" parent="1" source="JigyoQ_GSb3Tfn5q-Iza-36" target="JigyoQ_GSb3Tfn5q-Iza-27">
          <mxGeometry relative="1" as="geometry">
            <mxPoint x="112" y="584" as="targetPoint" />
            <Array as="points" />
          </mxGeometry>
        </mxCell>
      </root>
    </mxGraphModel>
  </diagram>
</mxfile>
